<svg width="120" height="40" viewBox="0 0 120 40" fill="none" xmlns="http://www.w3.org/2000/svg">
  <rect width="120" height="40" rx="8" fill="#2563EB" />
  <path d="M22.924 29L19.532 20.28H15.8V29H12.512V10.6H19.868C21.644 10.6 23.084 11.128 24.188 12.184C25.292 13.24 25.844 14.6 25.844 16.264C25.844 17.608 25.484 18.744 24.764 19.672C24.044 20.584 23.052 21.208 21.788 21.544L25.46 29H22.924ZM15.8 17.752H19.868C20.732 17.752 21.42 17.496 21.932 16.984C22.444 16.456 22.7 15.784 22.7 14.968C22.7 14.152 22.444 13.488 21.932 12.976C21.42 12.464 20.732 12.208 19.868 12.208H15.8V17.752Z" fill="white"/>
  <path d="M42.2973 29H28.8893V10.6H42.2973V13.16H32.1773V18.416H41.1933V20.976H32.1773V26.44H42.2973V29Z" fill="white"/>
  <path d="M64.9654 10.6V29H62.1414L52.1174 15.88V29H48.8294V10.6H51.6534L61.6774 23.72V10.6H64.9654Z" fill="white"/>
  <path d="M83.5043 29H70.0963V10.6H83.5043V13.16H73.3843V18.416H82.4003V20.976H73.3843V26.44H83.5043V29Z" fill="white"/>
  <path d="M89.5883 13.16H84.0243V10.6H98.4643V13.16H92.9003V29H89.5883V13.16Z" fill="white"/>
</svg> 